<?xml version="1.0" encoding="UTF-8"?>
<!DOCTYPE svg PUBLIC "-//W3C//DTD SVG 1.1//EN" "http://www.w3.org/Graphics/SVG/1.1/DTD/svg11.dtd">
<!-- Creator: CorelDRAW -->
<svg xmlns="http://www.w3.org/2000/svg" xml:space="preserve" width="55.8802mm" height="28.4818mm" version="1.1" style="shape-rendering:geometricPrecision; text-rendering:geometricPrecision; image-rendering:optimizeQuality; fill-rule:evenodd; clip-rule:evenodd"
viewBox="0 0 5587.9 2848.12"
 xmlns:xlink="http://www.w3.org/1999/xlink"
 xmlns:xodm="http://www.corel.com/coreldraw/odm/2003">
 <defs>
  <style type="text/css">
   <![CDATA[
    .fil1 {fill:#BAAE84;fill-rule:nonzero}
    .fil2 {fill:#BAAE84;fill-rule:nonzero}
    .fil3 {fill:#F5C419;fill-rule:nonzero}
    .fil0 {fill:#F5C419;fill-rule:nonzero}
    .fil4 {fill:#FFCA18;fill-rule:nonzero}
   ]]>
  </style>
 </defs>
 <g id="Camada_x0020_1">
  <metadata id="CorelCorpID_0Corel-Layer"/>
  <g id="_2271231906624">
   <g>
    <path class="fil0" d="M-0 2556.73c0,-40.54 7.32,-78.55 21.96,-114.03 14.64,-35.47 34.77,-66.3 60.39,-92.48 25.62,-26.19 56.17,-46.88 91.65,-62.08 35.47,-15.21 74.04,-22.81 115.71,-22.81 37.16,0 71.65,5.35 103.47,16.05 31.81,10.7 59.97,26.04 84.46,46.03 24.49,19.99 44.62,44.2 60.39,72.64 15.77,28.44 26.18,60.11 31.25,95.02l-141.05 0c-9.57,-31.53 -27.17,-56.45 -52.79,-74.75 -25.62,-18.3 -54.48,-27.45 -86.57,-27.45 -21.4,0 -41.39,4.22 -59.97,12.67 -18.59,8.45 -34.63,19.99 -48.15,34.63 -13.51,14.64 -24.21,31.96 -32.09,51.94 -7.89,19.99 -11.83,41.53 -11.83,64.62 0,23.09 3.94,44.62 11.83,64.61 7.88,19.99 18.58,37.31 32.09,51.95 13.52,14.64 29.56,26.18 48.15,34.63 18.58,8.44 38.57,12.67 59.97,12.67 32.09,0 60.95,-9.15 86.57,-27.45 25.62,-18.3 43.22,-43.22 52.79,-74.75l141.05 0c-5.07,34.91 -15.48,66.58 -31.25,95.02 -15.77,28.43 -35.9,52.65 -60.39,72.64 -24.49,19.99 -52.65,35.33 -84.46,46.03 -31.82,10.7 -66.31,16.05 -103.47,16.05 -41.67,0 -80.24,-7.61 -115.71,-22.81 -35.48,-15.2 -66.03,-35.9 -91.65,-62.08 -25.62,-26.18 -45.75,-57.01 -60.39,-92.49 -14.64,-35.47 -21.96,-73.48 -21.96,-114.02zm594.79 0c0,-41.67 7.46,-80.24 22.38,-115.72 14.93,-35.47 35.48,-66.16 61.66,-92.06 26.19,-25.9 57.3,-46.31 93.33,-61.24 36.04,-14.92 74.89,-22.38 116.56,-22.38 42.23,0 81.23,7.32 116.98,21.96 35.76,14.64 66.73,35.05 92.91,61.24 26.19,26.18 46.74,57.01 61.66,92.48 14.92,35.48 22.38,74.05 22.38,115.72 0,41.67 -7.46,80.24 -22.38,115.71 -14.92,35.48 -35.47,66.31 -61.66,92.49 -26.18,26.18 -57.15,46.6 -92.91,61.24 -35.75,14.64 -74.75,21.96 -116.98,21.96 -41.67,0 -80.52,-7.32 -116.56,-21.96 -36.03,-14.64 -67.14,-35.06 -93.33,-61.24 -26.18,-26.18 -46.73,-57.01 -61.66,-92.49 -14.92,-35.47 -22.38,-74.04 -22.38,-115.71zm136.83 -0.85c0,23.09 3.94,44.63 11.83,64.62 7.88,19.99 18.86,37.16 32.94,51.52 14.07,14.36 30.69,25.62 49.83,33.79 19.15,8.16 39.98,12.24 62.5,12.24 22.53,0 43.36,-4.08 62.51,-12.24 19.14,-8.17 35.75,-19.43 49.83,-33.79 14.08,-14.36 25.06,-31.53 32.94,-51.52 7.88,-19.99 11.82,-41.53 11.82,-64.62 0,-23.08 -3.94,-44.34 -11.82,-63.77 -7.88,-19.42 -18.86,-36.31 -32.94,-50.67 -14.08,-14.36 -30.69,-25.62 -49.83,-33.79 -19.15,-8.16 -39.98,-12.25 -62.51,-12.25 -22.52,0 -43.35,4.09 -62.5,12.25 -19.14,8.17 -35.76,19.43 -49.83,33.79 -14.08,14.36 -25.06,31.25 -32.94,50.67 -7.89,19.43 -11.83,40.69 -11.83,63.77zm745.13 292.24c-38.85,0 -74.47,-6.9 -106.84,-20.7 -32.38,-13.79 -60.25,-33.36 -83.62,-58.7 -23.37,-25.34 -41.53,-55.6 -54.48,-90.8 -12.95,-35.19 -19.43,-74.18 -19.43,-116.98 0,-43.36 6.62,-83.19 19.85,-119.51 13.23,-36.32 32.38,-67.57 57.44,-93.76 25.05,-26.18 55.18,-46.45 90.37,-60.81 35.19,-14.36 74.75,-21.54 118.67,-21.54 36.04,0 69.26,4.51 99.67,13.52 30.4,9.01 57.29,21.67 80.66,38 23.37,16.33 42.79,36.32 58.28,59.97 15.48,23.65 25.76,50.12 30.83,79.4l-157.1 0c-7.32,-21.4 -21.4,-38.43 -42.23,-51.1 -20.84,-12.67 -44.77,-19.01 -71.8,-19.01 -22.52,0 -42.93,4.23 -61.23,12.67 -18.3,8.45 -33.79,20.27 -46.46,35.48 -12.67,15.2 -22.52,32.94 -29.56,53.21 -7.04,20.27 -10.56,42.23 -10.56,65.88 0,54.06 14.78,96.57 44.35,127.54 29.56,30.97 69.96,46.45 121.2,46.45 28.72,0 53.63,-5.2 74.75,-15.62 21.12,-10.42 37.3,-25.48 48.57,-45.19l0 -48.14 -121.63 0 0 -93.76 254.22 0 0 315.04 -132.6 0 0 -53.21c-20.28,19.71 -43.78,34.91 -70.53,45.61 -26.75,10.7 -57.01,16.05 -90.8,16.05zm612.53 0c-78.83,0 -139.79,-19.99 -182.86,-59.97 -43.08,-39.98 -64.62,-97.42 -64.62,-172.31l0 -342.06 133.45 0 0 333.62c0,37.72 9.58,67.14 28.72,88.26 19.15,21.12 47.58,31.67 85.31,31.67 37.16,0 65.18,-10.55 84.04,-31.67 18.86,-21.12 28.29,-50.54 28.29,-88.26l0 -333.62 133.46 0 0 342.06c0,74.89 -21.26,132.33 -63.77,172.31 -42.52,39.98 -103.19,59.97 -182.02,59.97z"/>
    <path class="fil1" d="M2442.5 2273.78l94.6 0 300.68 467.07 0 -467.07 73.48 0 0 565.89 -94.6 0 -300.67 -467.07 0 467.07 -73.49 0 0 -565.89zm608.31 0l388.52 0 0 67.57 -315.03 0 0 184.97 267.73 0 0 63.35 -267.73 0 0 182.44 315.03 0 0 67.57 -388.52 0 0 -565.89zm726.55 574.34c-36.6,0 -69.4,-5.35 -98.4,-16.05 -29,-10.7 -53.64,-25.9 -73.91,-45.61 -20.27,-19.71 -35.75,-44.06 -46.45,-73.06 -10.7,-29 -16.05,-61.52 -16.05,-97.56l0 -342.06 73.48 0 0 342.06c0,52.93 14.08,93.62 42.23,122.05 28.16,28.44 67.86,42.66 119.1,42.66 51.24,0 90.79,-14.22 118.67,-42.66 27.87,-28.43 41.81,-69.12 41.81,-122.05l0 -342.06 73.48 0 0 342.06c0,36.04 -5.35,68.56 -16.05,97.56 -10.7,29 -26.04,53.35 -46.03,73.06 -19.99,19.71 -44.49,34.91 -73.48,45.61 -29,10.7 -61.8,16.05 -98.4,16.05zm593.95 -574.34c32.09,0 60.81,3.94 86.15,11.82 25.34,7.89 47.02,19.29 65.03,34.21 18.02,14.92 31.82,32.94 41.39,54.06 9.57,21.11 14.36,44.9 14.36,71.37 0,40.54 -11.26,74.89 -33.79,103.04 -22.52,28.16 -54.9,48.15 -97.13,59.97l137.68 231.43 -87 0 -128.38 -222.14 -147.81 0 0 222.14 -73.49 0 0 -565.89 222.99 0zm-7.61 280.41c43.92,0 77.99,-9.3 102.2,-27.88 24.22,-18.58 36.32,-44.76 36.32,-78.55 0,-33.78 -12.1,-59.97 -36.32,-78.55 -24.21,-18.58 -58.28,-27.87 -102.2,-27.87l-141.89 0 0 212.85 141.89 0zm479.08 -280.41l92.06 0 217.92 565.89 -76.86 0 -47.3 -123.32 -279.57 0 -47.3 123.32 -76.86 0 217.92 -565.89zm160.48 375l-114.03 -300.67 -114.87 300.67 228.9 0zm221.47 -375l73.49 0 0 498.32 289.69 0 0 67.57 -363.18 0 0 -565.89z"/>
   </g>
   <path class="fil2" d="M2094.48 615.28c67.69,-24.34 142.77,-60.06 223.69,-96.71 7.34,-15.76 15.31,-31.03 23.85,-45.85 32.16,-55.83 72.59,-105.05 119.57,-148.98l-1.19 -2.33c-5.58,-11.47 -5.96,-24.16 -2.07,-35.42 3.93,-11.32 12.09,-21.07 23.56,-26.64 11.51,-5.58 24.24,-5.99 35.47,-2.09 11.26,3.95 21.02,12.11 26.58,23.59 5.61,11.52 6,24.25 2.1,35.48 -3.9,11.26 -12.07,21.01 -23.58,26.58 -11.49,5.59 -24.22,5.97 -35.47,2.07l-1.11 -0.39c-45.89,42.48 -85.24,90.06 -116.35,144 -1.78,3.09 -3.52,6.19 -5.25,9.32 171.52,-75.68 366.81,-147.05 572.57,-122.45l0.12 0 0 0.01c37.35,4.47 75.01,12.08 112.96,23.42 1.78,-2.74 3.83,-5.29 6.14,-7.6 8.5,-8.46 20.08,-13.68 32.83,-13.68 12.81,0 24.43,5.2 32.84,13.61 8.4,8.47 13.61,20.08 13.61,32.84 0,12.81 -5.2,24.42 -13.61,32.84 -8.41,8.41 -20.03,13.61 -32.84,13.61 -12.75,0 -24.37,-5.22 -32.8,-13.65 -8.43,-8.38 -13.64,-19.99 -13.64,-32.8 0,-1.35 0.06,-2.67 0.18,-4 -35.89,-8.66 -71.48,-14.33 -106.7,-17.45 -99.68,-2.08 -265.72,68.89 -357.61,123.81 1.22,3.96 2.07,8.1 2.52,12.38 1.93,18.14 -3.68,35.36 -14.3,48.53 -10.62,13.19 -26.3,22.3 -44.45,24.25 -18.15,1.94 -35.38,-3.67 -48.54,-14.29 -13.16,-10.64 -22.31,-26.32 -24.23,-44.47 -1.93,-18.14 3.66,-35.38 14.28,-48.53 10.66,-13.17 26.32,-22.32 44.47,-24.26 18.14,-1.93 35.38,3.68 48.52,14.3 3.69,2.98 7.04,6.35 10.03,10.06 60.03,-35.64 147.63,-75.59 230.57,-101.47 -409.05,36.33 -743.39,364.47 -840.15,257.72 -161.92,-178.63 595.3,-718.35 924.13,-655.6 330.24,63.01 1002.28,541.67 888.41,932.1l-38.26 36.87c13.81,-53.58 15.6,-104.36 8.06,-152.67 -8.02,-47.14 -53.98,-70.91 -107.15,-101.67 -8.87,-4.21 -17.58,-8.69 -26.11,-13.41 -67.09,-19.89 -139.86,-23.81 -210.61,-20.1 -1.71,13.7 -8.02,26.05 -17.33,35.37 -11.06,11.05 -26.25,17.85 -42.92,17.85 -16.76,0 -31.95,-6.8 -42.93,-17.78 -10.98,-10.98 -17.79,-26.18 -17.79,-42.93 0,-16.71 6.81,-31.89 17.79,-42.87 11.03,-11.03 26.22,-17.86 42.93,-17.86 16.74,0 31.94,6.83 42.92,17.79 7.44,7.46 12.97,16.83 15.75,27.31 50.42,-2.65 101.88,-1.78 152.5,4.43 -68.3,-51.39 -124.06,-118.67 -170.62,-190.77 -8.25,4.17 -17.53,6.53 -27.33,6.53 -16.76,0 -31.95,-6.81 -42.95,-17.79 -10.96,-10.98 -17.78,-26.18 -17.78,-42.92 0,-16.71 6.82,-31.9 17.78,-42.88 11.05,-11.03 26.22,-17.85 42.95,-17.85 16.74,0 31.94,6.82 42.91,17.8 10.99,10.98 17.8,26.17 17.8,42.93 0,15.73 -6.07,30.13 -15.97,40.96 61.2,95.29 143.04,184.75 253.35,219.88 17.81,4.65 34.67,8.07 50.93,11.78 -60.13,-118.64 -170.27,-221.35 -278.25,-314.2 -102.86,-88.46 -230.42,-184.95 -367.57,-245.89 -65.81,18.13 -131.4,54.22 -165.53,110.55l1.56 1.49c8.39,8.45 13.61,20.06 13.61,32.82 0,12.81 -5.2,24.42 -13.61,32.83 -8.42,8.42 -20.03,13.62 -32.84,13.62 -12.76,0 -24.37,-5.22 -32.8,-13.65 -8.43,-8.38 -13.65,-19.99 -13.65,-32.8 0,-12.76 5.22,-24.34 13.61,-32.77 8.5,-8.47 20.08,-13.67 32.84,-13.67 5.37,0 10.55,0.91 15.36,2.6 31.77,-52.31 89.9,-89.92 150.6,-114.05l-6.47 -2.55c-19.12,-0.29 -38.37,0.14 -57.66,1.42 -55.93,3.73 -112.09,14.52 -165.62,35.06 0.46,3.16 0.7,6.41 0.7,9.7 0,18.21 -7.42,34.73 -19.39,46.74 -12.06,12.02 -28.58,19.44 -46.8,19.44 -18.24,0 -34.81,-7.42 -46.79,-19.39 -11.95,-11.97 -19.39,-28.53 -19.39,-46.79 0,-18.22 7.44,-34.75 19.39,-46.73 12.04,-12.02 28.58,-19.44 46.79,-19.44 18.27,0 34.82,7.42 46.8,19.38 2.37,2.39 4.6,4.94 6.58,7.67 48.43,-18.67 98.68,-29.77 148.91,-35.11 -88.44,-22.59 -178.89,-26.3 -267.67,-0.44 -75.25,21.92 -175.21,69.45 -275.35,129.07 -29.76,26.95 -56.89,56.45 -80.97,86.23 -28.56,35.33 -52.87,71.07 -72.25,103.45 7.23,8.22 11.66,19 11.66,30.73 0,12.81 -5.2,24.42 -13.61,32.84 -8.42,8.41 -20.03,13.61 -32.84,13.61 -12.76,0 -24.37,-5.22 -32.8,-13.65 -8.45,-8.38 -13.65,-19.99 -13.65,-32.8 0,-12.76 5.22,-24.34 13.62,-32.77 8.5,-8.46 20.07,-13.68 32.83,-13.68 2.31,0 4.59,0.17 6.81,0.51 19.63,-32.93 44.26,-69.31 73.18,-105.36 -127.62,87.58 -240.1,187.56 -281.63,269.11 -32.9,64.63 48.85,75.14 99.28,57zm473.19 97.63c171.31,-100.66 357.47,-133.07 558.01,-133.12 2.28,8.04 6.59,15.24 12.33,20.99 8.76,8.73 20.87,14.17 34.21,14.17 13.34,0 25.44,-5.44 34.2,-14.17 8.74,-8.76 14.18,-20.87 14.18,-34.21 0,-13.34 -5.44,-25.45 -14.18,-34.2 -8.76,-8.74 -20.86,-14.18 -34.2,-14.18 -13.34,0 -25.45,5.44 -34.21,14.18 -7.59,7.61 -12.69,17.75 -13.89,29.02 -225.32,-15.58 -433.59,25.82 -622.76,153.41 21.88,-0.84 43.97,-1.46 66.31,-1.89zm588.09 -146.34c0,-4.55 1.85,-8.67 4.81,-11.65 2.97,-2.95 7.1,-4.8 11.65,-4.8 4.54,0 8.67,1.85 11.64,4.8 2.96,2.98 4.81,7.1 4.81,11.65 0,4.55 -1.85,8.67 -4.81,11.65 -2.97,2.96 -7.1,4.8 -11.64,4.8 -4.55,0 -8.68,-1.84 -11.65,-4.8 -2.96,-2.98 -4.81,-7.1 -4.81,-11.65zm199.88 91.74c-5.2,-5.19 -12.42,-8.42 -20.37,-8.42 -7.99,0 -15.21,3.22 -20.41,8.4 -5.18,5.2 -8.39,12.42 -8.39,20.4 0,7.96 3.23,15.17 8.41,20.37 5.2,5.2 12.42,8.43 20.39,8.43 8,0 15.2,-3.21 20.37,-8.38 5.21,-5.21 8.43,-12.43 8.43,-20.42 0,-7.97 -3.24,-15.18 -8.43,-20.38zm4.8 -209.54l5.82 -3.52c0.92,-0.7 1.77,-1.47 2.6,-2.29 5.21,-5.22 8.43,-12.44 8.43,-20.42 0,-7.97 -3.24,-15.19 -8.43,-20.39 -5.2,-5.18 -12.42,-8.41 -20.37,-8.41 -7.99,0 -15.21,3.21 -20.41,8.39 -5.18,5.2 -8.39,12.42 -8.39,20.41 0,7.95 3.23,15.17 8.41,20.37 5.2,5.2 12.42,8.43 20.39,8.43 4.27,0 8.31,-0.93 11.95,-2.57zm-261.22 -34.99c-2.65,-2.62 -6.3,-4.24 -10.32,-4.24 -4.05,0 -7.69,1.61 -10.27,4.19 -2.64,2.63 -4.25,6.28 -4.25,10.33 0,4.02 1.63,7.66 4.25,10.28 2.58,2.63 6.22,4.24 10.27,4.24 4.02,0 7.67,-1.63 10.28,-4.24 2.62,-2.62 4.26,-6.26 4.26,-10.28 0,-4.05 -1.62,-7.7 -4.22,-10.28zm-562.55 105.35c-6.84,-5.51 -15.8,-8.43 -25.22,-7.44 -9.41,1.01 -17.55,5.73 -23.04,12.54 -5.52,6.84 -8.43,15.8 -7.44,25.22 1.01,9.43 5.75,17.55 12.54,23.04 6.84,5.52 15.8,8.43 25.22,7.44 9.41,-1.01 17.53,-5.73 23.04,-12.54 5.5,-6.84 8.43,-15.8 7.42,-25.22 -0.99,-9.43 -5.73,-17.55 -12.52,-23.04zm-29.71 -231.73c-3.54,-1.2 -7.52,-1.08 -11.13,0.66 -3.64,1.78 -6.22,4.83 -7.42,8.26 -1.22,3.53 -1.08,7.51 0.7,11.17 1.74,3.61 4.81,6.16 8.31,7.39 3.46,1.23 7.44,1.09 11.1,-0.68 3.61,-1.75 6.17,-4.81 7.39,-8.3 1.21,-3.5 1.08,-7.49 -0.67,-11.1 -1.78,-3.66 -4.82,-6.22 -8.28,-7.4zm358.23 -17.77c-2.65,-2.62 -6.29,-4.24 -10.31,-4.24 -4.05,0 -7.7,1.6 -10.28,4.19 -2.63,2.63 -4.24,6.27 -4.24,10.33 0,4.02 1.62,7.66 4.24,10.27 2.58,2.66 6.23,4.26 10.28,4.26 4.02,0 7.66,-1.64 10.28,-4.26 2.61,-2.61 4.26,-6.25 4.26,-10.27 0,-4.06 -1.63,-7.7 -4.23,-10.28zm-115.35 -128.22c-6.18,-6.17 -14.76,-10.02 -24.24,-10.02 -9.47,0 -18.07,3.83 -24.26,9.99 -6.18,6.19 -9.99,14.79 -9.99,24.27 0,9.47 3.85,18.06 10.02,24.23 6.19,6.19 14.78,10.04 24.23,10.04 9.51,0 18.08,-3.83 24.24,-9.97 6.21,-6.21 10.04,-14.79 10.04,-24.3 0,-9.46 -3.85,-18.05 -10.04,-24.24zm-542.67 288.76c-2.66,-2.61 -6.3,-4.24 -10.32,-4.24 -4.05,0 -7.69,1.61 -10.28,4.19 -2.63,2.63 -4.24,6.28 -4.24,10.33 0,4.02 1.63,7.66 4.24,10.28 2.59,2.63 6.23,4.26 10.28,4.26 4.02,0 7.66,-1.64 10.28,-4.26 2.62,-2.62 4.24,-6.26 4.24,-10.28 0,-4.05 -1.61,-7.7 -4.2,-10.28z"/>
   <path class="fil3" d="M2340.09 1755.55c155.63,-97.43 243.42,-240.69 292.59,-401.6 16.57,-54.23 18.88,-174.72 -108.03,-174.72 -131.19,-8.33 -728.05,-48.12 -732.6,-246.5 6,-153.88 355.68,-206.18 709.3,-218.05 0.16,0 57.88,-1.78 66.31,-1.78 281.97,-5.64 552.91,12.08 639.33,22 50.3,5.76 751.81,94.61 513.77,265.74 -145.78,104.78 -496.65,156.19 -797.58,174.47 -55.07,3.3 -40.02,-94.73 -0.02,-94.81 264.52,-0.6 504.09,-16.27 613.66,-40.19 49.8,-10.88 193.67,-39.83 193.67,-107.85 -17.35,-163.6 -820.75,-176.76 -934.94,-173.98 -136.93,2.31 -690.59,32.75 -867.05,136.97 -49.79,29.37 -29.88,51.84 -5.3,65.49 107.52,59.73 348.25,93.87 614.65,109.35 138.7,8.05 142.1,14.53 155.6,-129.69 2.73,-29.26 2.41,-63.22 0.53,-101.48 -0.62,-12.67 29.34,-30.65 38.92,11.41 83.15,363.83 8.16,816.19 -356.76,1007.51 -84.22,44.16 -142.88,-25.17 -58.35,-87.8l22.32 -14.5z"/>
   <path class="fil4" d="M3029.98 1716.16c-94.5,-129.48 -137.96,-284.96 -139.24,-445l12.11 -1.03c24.18,146.33 62.06,288.09 146.77,410.24 41.25,59.51 -6.59,53.63 -19.64,35.79z"/>
  </g>
 </g>
</svg>
